<svg width="32" height="32" viewBox="0 0 32 32" fill="none" xmlns="http://www.w3.org/2000/svg">
  <rect width="32" height="32" rx="8" fill="url(#gradient)" />
  <path d="M17.1 10.9C17.1 9.5 16 8.4 14.6 8.4C13.2 8.4 12.1 9.5 12.1 10.9V13.4H14.6C16 13.4 17.1 12.3 17.1 10.9Z" fill="white" />
  <path d="M19.9 21.1C19.9 22.5 21 23.6 22.4 23.6C23.8 23.6 24.9 22.5 24.9 21.1V18.6H22.4C21 18.6 19.9 19.7 19.9 21.1Z" fill="white" />
  <path d="M19.9 10.9C19.9 9.5 21 8.4 22.4 8.4C23.8 8.4 24.9 9.5 24.9 10.9V13.4H22.4C21 13.4 19.9 12.3 19.9 10.9Z" fill="white" />
  <path d="M12.1 21.1C12.1 22.5 13.2 23.6 14.6 23.6C16 23.6 17.1 22.5 17.1 21.1V18.6H14.6C13.2 18.6 12.1 19.7 12.1 21.1Z" fill="white" />
  <path d="M7.1 13.4C8.5 13.4 9.6 12.3 9.6 10.9C9.6 9.5 8.5 8.4 7.1 8.4C5.7 8.4 4.6 9.5 4.6 10.9C4.6 12.3 5.7 13.4 7.1 13.4Z" fill="white" />
  <path d="M7.1 23.6C8.5 23.6 9.6 22.5 9.6 21.1C9.6 19.7 8.5 18.6 7.1 18.6C5.7 18.6 4.6 19.7 4.6 21.1C4.6 22.5 5.7 23.6 7.1 23.6Z" fill="white" />
  <defs>
    <linearGradient id="gradient" x1="0" y1="0" x2="32" y2="32" gradientUnits="userSpaceOnUse">
      <stop stop-color="#3B7EFA" />
      <stop offset="1" stop-color="#0EA5E9" />
    </linearGradient>
  </defs>
</svg>